HIERARCHY
ROOT Hips
{
    OFFSET 0.000000 0.000000 0.000000
    CHANNELS 6 Xposition Yposition Zposition Zrotation Xrotation Yrotation
    JOINT Spine
    {
        OFFSET -0.000000 7.761268 0.000000
        CHANNELS 3 Zrotation Xrotation Yrotation
        JOINT Spine1
        {
            OFFSET -0.000000 24.785763 0.000000
            CHANNELS 3 Zrotation Xrotation Yrotation
            JOINT Neck
            {
                OFFSET -0.000000 24.683973 2.243998
                CHANNELS 3 Zrotation Xrotation Yrotation
                JOINT Head
                {
                    OFFSET -0.000000 13.250945 -1.892992
                    CHANNELS 3 Zrotation Xrotation Yrotation
                    End Site
                    {
                        OFFSET -0.000000 23.662401 0.000000
                    }
                }
            }
            JOINT LeftShoulder
            {
                OFFSET 3.794134 23.444212 -0.177979
                CHANNELS 3 Zrotation Xrotation Yrotation
                JOINT LeftArm
                {
                    OFFSET 9.211075 0.000000 0.000000
                    CHANNELS 3 Zrotation Xrotation Yrotation
                    JOINT LeftForeArm
                    {
                        OFFSET 34.352840 0.000000 0.000000
                        CHANNELS 3 Zrotation Xrotation Yrotation
                        JOINT LeftHand
                        {
                            OFFSET 25.460636 0.000000 0.000000
                            CHANNELS 3 Zrotation Xrotation Yrotation
                            End Site
                            {
                                OFFSET 14.197442 0.000000 0.000000
                            }
                        }
                    }
                }
            }
            JOINT RightShoulder
            {
                OFFSET -3.767389 23.444212 -0.177979
                CHANNELS 3 Zrotation Xrotation Yrotation
                JOINT RightArm
                {
                    OFFSET -9.211075 0.000000 0.000000
                    CHANNELS 3 Zrotation Xrotation Yrotation
                    JOINT RightForeArm
                    {
                        OFFSET -34.352840 0.000000 0.000000
                        CHANNELS 3 Zrotation Xrotation Yrotation
                        JOINT RightHand
                        {
                            OFFSET -25.460636 0.000000 0.000000
                            CHANNELS 3 Zrotation Xrotation Yrotation
                            End Site
                            {
                                OFFSET -14.197442 0.000000 0.000000
                            }
                        }
                    }
                }
            }
        }
    }
    JOINT LeftUpLeg
    {
        OFFSET 9.464960 0.000000 0.000000
        CHANNELS 3 Zrotation Xrotation Yrotation
        JOINT LeftLeg
        {
            OFFSET -0.000000 -36.073700 0.000000
            CHANNELS 3 Zrotation Xrotation Yrotation
            JOINT LeftFoot
            {
                OFFSET -0.000000 -40.808823 0.000000
                CHANNELS 3 Zrotation Xrotation Yrotation
                JOINT LeftToeBase
                {
                    OFFSET -0.000000 -6.152224 14.197442
                    CHANNELS 3 Zrotation Xrotation Yrotation
                    End Site
                    {
                        OFFSET -0.000000 0.000000 3.785984
                    }
                }
            }
        }
    }
    JOINT RightUpLeg
    {
        OFFSET -9.464960 0.000000 0.000000
        CHANNELS 3 Zrotation Xrotation Yrotation
        JOINT RightLeg
        {
            OFFSET -0.000000 -36.073700 0.000000
            CHANNELS 3 Zrotation Xrotation Yrotation
            JOINT RightFoot
            {
                OFFSET -0.000000 -40.808823 0.000000
                CHANNELS 3 Zrotation Xrotation Yrotation
                JOINT RightToeBase
                {
                    OFFSET -0.000000 -6.152224 14.197442
                    CHANNELS 3 Zrotation Xrotation Yrotation
                    End Site
                    {
                        OFFSET -0.000000 0.000000 3.785984
                    }
                }
            }
        }
    }
}
MOTION
Frames:    11
Frame Time:    0.004000
-15.958158    79.083618    -95.858238    0.567391    -5.802217    9.814174    -0.926237    -11.724597    -3.372883    -0.349931    21.292627    -3.211838    -1.468209    33.793144    -0.651043    -2.005951    27.713661    -0.720368    -12.464069    24.383812    -6.767409    -25.327845    28.670998    -30.910709    5.296340    -4.005445    -38.831959    10.105422    -1.867041    3.080894    13.824477    27.828213    -1.878629    28.729155    47.939968    31.177563    -7.221602    -16.366266    37.087688    -13.124074    -12.920004    -9.866913    -4.733288    20.350536    2.786719    0.126051    2.008529    -10.421403    4.767048    -13.422573    9.411678    0.000000    0.000000    0.000000    -0.573038    -8.190146    3.774515    1.178090    -7.497621    1.406215    -1.248230    4.123823    -26.127361    0.000000    0.000000    0.000000    
-15.925964    79.068993    -95.569183    0.584792    -5.717090    9.973113    -0.915648    -11.860399    -3.417082    -0.308462    21.348299    -3.263654    -1.444495    33.767632    -0.685137    -1.990627    27.696024    -0.753304    -12.484819    24.466686    -6.788390    -25.498095    28.338205    -30.906403    5.013687    -3.700984    -38.942581    10.063144    -1.654770    3.111940    13.785495    27.788418    -1.894998    28.722031    47.989559    31.205263    -7.259122    -16.407059    37.111683    -13.232329    -12.915086    -10.069680    -4.690840    20.400171    2.660520    0.124356    2.125602    -10.296797    4.637422    -13.475462    9.229092    0.000000    0.000000    0.000000    -0.593288    -8.035701    3.902064    1.096752    -7.669975    1.347054    -1.202837    4.184244    -26.107887    0.000000    0.000000    0.000000    
-15.894309    79.051674    -95.272560    0.591060    -5.675825    10.111886    -0.895953    -11.935055    -3.441447    -0.245781    21.369858    -3.301253    -1.424944    33.732777    -0.717891    -1.954707    27.736603    -0.786639    -12.531539    24.516949    -6.856624    -25.542665    28.446503    -30.878059    5.115919    -3.690438    -38.987415    9.789502    -1.620355    3.028595    13.756398    27.812469    -1.924511    28.803135    47.911579    31.186457    -7.261872    -16.435154    37.106861    -13.214077    -12.960336    -9.931804    -4.614653    20.474897    2.581583    0.091476    2.301283    -10.381297    4.519998    -13.545641    9.223722    0.000000    0.000000    0.000000    -0.582187    -7.807486    4.183307    0.981098    -7.862381    1.350326    -1.164088    4.435862    -26.286804    0.000000    0.000000    0.000000    
-15.861487    79.043419    -94.967888    0.597423    -5.619636    10.230695    -0.846705    -12.038336    -3.462359    -0.279674    21.400404    -3.320063    -1.305149    33.746597    -0.789172    -1.976410    27.708826    -0.838392    -12.549869    24.546051    -6.865242    -25.523127    28.639454    -30.919350    5.137592    -3.708540    -39.024090    9.905326    -1.622321    3.069508    13.818040    27.794491    -1.933668    28.779861    47.928303    31.134438    -7.250377    -16.429405    37.198990    -13.463861    -12.900022    -10.194612    -4.571829    20.551100    2.593093    0.103458    2.376736    -9.811137    4.194025    -13.568346    8.446631    0.000000    0.000000    0.000000    -0.600590    -7.632686    4.294670    0.983004    -7.930827    1.423796    -1.203082    4.777112    -26.398087    0.000000    0.000000    0.000000    
-15.838716    79.035042    -94.664597    0.587687    -5.585004    10.376449    -0.807652    -12.132711    -3.488631    -0.231509    21.452127    -3.358783    -1.290793    33.726940    -0.822292    -1.950400    27.724466    -0.872550    -12.590496    24.659203    -6.873212    -25.503059    28.657719    -31.000652    5.085048    -3.665537    -39.053410    9.843472    -1.606559    2.971283    13.795448    27.774843    -1.954001    28.836037    47.926540    31.124989    -7.301825    -16.458693    37.175217    -13.502892    -12.915112    -10.159550    -4.488307    20.633526    2.530081    0.118902    2.536457    -9.911628    4.067890    -13.609268    8.420812    0.000000    0.000000    0.000000    -0.593555    -7.358353    4.571668    0.944811    -8.117691    1.349658    -1.038019    5.161900    -26.682213    0.000000    0.000000    0.000000    
-15.815285    79.028358    -94.335770    0.586231    -5.582322    10.579482    -0.825522    -12.223020    -3.555756    -0.130924    21.540525    -3.442287    -1.289405    33.735157    -0.863112    -1.891074    27.699467    -0.921848    -12.649673    24.683599    -6.908432    -25.614109    28.656136    -30.958517    5.010346    -3.558587    -39.097401    9.784699    -1.519355    3.041467    13.792008    27.886105    -1.999338    28.729815    47.860325    31.251394    -7.337852    -16.533257    37.166935    -13.489406    -12.996810    -10.022076    -4.385470    20.756315    2.443337    0.146755    2.709420    -10.030521    3.882197    -13.652978    8.358869    0.000000    0.000000    0.000000    -0.564654    -7.049403    4.589302    0.882739    -8.251029    1.350088    -1.588287    5.839391    -26.633835    0.000000    0.000000    0.000000    
-15.797743    79.028214    -94.045685    0.549401    -5.523269    10.701589    -0.780193    -12.330288    -3.567279    -0.057189    21.567978    -3.471947    -1.243308    33.777866    -0.919881    -1.896247    27.635818    -0.974185    -12.689898    24.757950    -6.920784    -25.568729    28.771906    -31.046478    4.959644    -3.519550    -39.129658    9.719577    -1.493839    3.095737    13.776904    27.738037    -2.014610    28.853760    47.959496    31.098774    -7.356561    -16.549194    37.197498    -13.484015    -12.988779    -10.163177    -4.266888    20.778933    2.459711    0.153172    2.902572    -10.255791    3.696266    -13.681307    8.358644    0.000000    0.000000    0.000000    -0.502602    -6.867411    4.680541    0.838256    -8.333149    1.356752    -2.429792    6.744759    -26.542242    0.000000    0.000000    0.000000    
-15.779093    79.030708    -93.723244    0.514923    -5.508239    10.846769    -0.710123    -12.436009    -3.603285    -0.063806    21.675932    -3.513530    -1.143792    33.748775    -0.970226    -1.898835    27.630184    -1.008693    -12.727965    24.783871    -6.898864    -25.616207    28.825951    -31.083273    4.928382    -3.428009    -39.090481    9.789666    -1.423144    2.980804    13.831017    27.698381    -2.001739    28.907352    47.863510    31.005060    -7.259269    -16.548279    37.257408    -13.432249    -13.028641    -10.091574    -4.147143    20.871817    2.401485    0.181150    3.080814    -10.355563    3.545663    -13.705838    8.295011    0.000000    0.000000    0.000000    -0.470187    -6.606568    4.753273    0.857367    -8.444810    1.503143    -3.870822    7.883164    -26.408333    0.000000    0.000000    0.000000    
-15.764296    79.042053    -93.422546    0.451174    -5.449821    10.961043    -0.703854    -12.605996    -3.583814    0.127316    21.795263    -3.530418    -1.068778    33.807873    -1.086491    -1.869826    27.535276    -1.122181    -12.747808    24.950609    -7.028268    -25.593395    28.866037    -31.223671    4.912546    -3.425746    -39.048920    9.881363    -1.425963    2.982091    13.804027    27.690901    -2.112752    28.802343    47.878105    31.094185    -7.258338    -16.586502    37.285919    -13.540791    -13.046533    -10.175858    -4.036011    20.861662    2.403331    0.245164    3.339223    -10.441546    3.377956    -13.748122    8.208244    0.000000    0.000000    0.000000    -0.369211    -6.421657    4.730654    0.798708    -8.555369    1.556688    -5.393335    9.188304    -25.906612    0.000000    0.000000    0.000000    
-15.744035    79.059959    -93.103241    0.406520    -5.436631    11.096994    -0.642809    -12.707365    -3.605087    0.177189    21.883638    -3.567595    -1.032883    33.799831    -1.140180    -1.825199    27.574547    -1.175724    -12.855754    24.990881    -7.041733    -25.611330    28.859253    -31.219961    4.791408    -3.260615    -39.048397    9.955128    -1.301302    2.986892    13.851096    27.684656    -2.144509    28.776237    47.904415    31.060976    -7.352518    -16.649132    37.286987    -13.443402    -13.088959    -10.164103    -3.909951    20.935553    2.322007    0.271530    3.556324    -10.611353    3.223154    -13.724561    8.258452    0.000000    0.000000    0.000000    -0.260841    -6.171341    4.446052    0.715477    -8.692287    1.704361    -6.122532    10.298202    -25.517836    0.000000    0.000000    0.000000    
-15.719625    79.100464    -92.741997    0.404129    -5.534259    11.047157    -0.579971    -12.760075    -3.539073    0.193042    22.054415    -3.511660    -0.890208    33.749008    -1.219949    -1.943978    27.671345    -1.218909    -12.932617    25.073563    -7.018214    -25.665306    28.818016    -31.271271    4.724667    -3.129443    -38.994190    9.938470    -1.198435    2.965702    13.904472    27.617584    -2.166812    28.690630    47.990120    31.068750    -7.353394    -16.714125    37.252346    -13.537005    -13.163380    -10.040091    -3.896085    21.217562    2.416283    0.320789    3.637185    -10.551379    2.748205    -13.500609    8.102687    0.000000    0.000000    0.000000    -0.146555    -5.767735    4.462648    0.605523    -8.898608    1.709684    -6.321821    11.232351    -25.203661    0.000000    0.000000    0.000000    
